HIERARCHY
ROOT hip
{
  OFFSET 0 0 0
  CHANNELS 6 Xposition Yposition Zposition Zrotation Yrotation Xrotation
  JOINT abdomen
  {
    OFFSET 0 20.6881 -0.73152
    CHANNELS 3 Zrotation Xrotation Yrotation
    JOINT chest
    {
      OFFSET 0 11.7043 -0.48768
      CHANNELS 3 Zrotation Xrotation Yrotation
      JOINT neck
      {
        OFFSET 0 22.1894 -2.19456
        CHANNELS 3 Zrotation Xrotation Yrotation
        JOINT head
        {
          OFFSET -0.24384 7.07133 1.2192
          CHANNELS 3 Zrotation Xrotation Yrotation
          JOINT leftEye
          {
            OFFSET 4.14528 8.04674 8.04672
            CHANNELS 3 Zrotation Xrotation Yrotation
            End Site
            {
              OFFSET 1 0 0
            }
          }
          JOINT rightEye
          {
            OFFSET -3.6576 8.04674 8.04672
            CHANNELS 3 Zrotation Xrotation Yrotation
            End Site
            {
              OFFSET 1 0 0
            }
          }
        }
      }
      JOINT rCollar
      {
        OFFSET -2.68224 19.2634 -4.8768
        CHANNELS 3 Zrotation Xrotation Yrotation
        JOINT rShldr
        {
          OFFSET -8.77824 -1.95073 1.46304
          CHANNELS 3 Zrotation Xrotation Yrotation
          JOINT rForeArm
          {
            OFFSET -28.1742 -1.7115 0.48768
            CHANNELS 3 Zrotation Xrotation Yrotation
            JOINT rHand
            {
              OFFSET -22.5879 0.773209 7.07136
              CHANNELS 3 Zrotation Xrotation Yrotation
              JOINT rThumb1
              {
                OFFSET -1.2192 -0.487915 3.41376
                CHANNELS 3 Zrotation Xrotation Yrotation
                JOINT rThumb2
                {
                  OFFSET -3.37035 -0.52449 3.41376
                  CHANNELS 3 Zrotation Xrotation Yrotation
                  End Site
                  {
                    OFFSET -1.78271 -1.18214 1.43049
                  }
                }
              }
              JOINT rIndex1
              {
                OFFSET -7.75947 0.938293 5.60832
                CHANNELS 3 Zrotation Xrotation Yrotation
                JOINT rIndex2
                {
                  OFFSET -2.54057 -0.884171 1.56538
                  CHANNELS 3 Zrotation Xrotation Yrotation
                  End Site
                  {
                    OFFSET -1.62519 -0.234802 1.16502
                  }
                }
              }
              JOINT rMid1
              {
                OFFSET -8.24714 1.18213 3.41376
                CHANNELS 3 Zrotation Xrotation Yrotation
                JOINT rMid2
                {
                  OFFSET -3.10165 -0.590103 1.0647
                  CHANNELS 3 Zrotation Xrotation Yrotation
                  End Site
                  {
                    OFFSET -2.48547 -0.328903 0.83742
                  }
                }
              }
              JOINT rRing1
              {
                OFFSET -8.82822 0.546677 1.51678
                CHANNELS 3 Zrotation Xrotation Yrotation
                JOINT rRing2
                {
                  OFFSET -2.60934 -0.819778 -0.0198488
                  CHANNELS 3 Zrotation Xrotation Yrotation
                  End Site
                  {
                    OFFSET -2.33842 -0.294052 0.168128
                  }
                }
              }
              JOINT rPinky1
              {
                OFFSET -8.27202 -0.0477905 -0.4584
                CHANNELS 3 Zrotation Xrotation Yrotation
                JOINT rPinky2
                {
                  OFFSET -1.82734 -0.647385 -0.700984
                  CHANNELS 3 Zrotation Xrotation Yrotation
                  End Site
                  {
                    OFFSET -1.69225 -0.51767 -0.607171
                  }
                }
              }
            }
          }
        }
      }
      JOINT lCollar
      {
        OFFSET 2.68224 19.2634 -4.8768
        CHANNELS 3 Zrotation Xrotation Yrotation
        JOINT lShldr
        {
          OFFSET 8.77824 -1.95073 1.46304
          CHANNELS 3 Zrotation Xrotation Yrotation
          JOINT lForeArm
          {
            OFFSET 28.1742 -1.7115 0.48768
            CHANNELS 3 Zrotation Xrotation Yrotation
            JOINT lHand
            {
              OFFSET 22.5879 0.773209 7.07136
              CHANNELS 3 Zrotation Xrotation Yrotation
              JOINT lThumb1
              {
                OFFSET 1.2192 -0.487915 3.41376
                CHANNELS 3 Zrotation Xrotation Yrotation
                JOINT lThumb2
                {
                  OFFSET 3.37035 -0.52449 3.41376
                  CHANNELS 3 Zrotation Xrotation Yrotation
                  End Site
                  {
                    OFFSET 1.78271 -1.18214 1.43049
                  }
                }
              }
              JOINT lIndex1
              {
                OFFSET 7.75947 0.938293 5.60832
                CHANNELS 3 Zrotation Xrotation Yrotation
                JOINT lIndex2
                {
                  OFFSET 2.54057 -0.884171 1.56538
                  CHANNELS 3 Zrotation Xrotation Yrotation
                  End Site
                  {
                    OFFSET 1.62519 -0.234802 1.16502
                  }
                }
              }
              JOINT lMid1
              {
                OFFSET 8.24714 1.18213 3.41376
                CHANNELS 3 Zrotation Xrotation Yrotation
                JOINT lMid2
                {
                  OFFSET 3.10165 -0.590103 1.0647
                  CHANNELS 3 Zrotation Xrotation Yrotation
                  End Site
                  {
                    OFFSET 2.48547 -0.328903 0.83742
                  }
                }
              }
              JOINT lRing1
              {
                OFFSET 8.82822 0.546677 1.51678
                CHANNELS 3 Zrotation Xrotation Yrotation
                JOINT lRing2
                {
                  OFFSET 2.60934 -0.819778 -0.0198488
                  CHANNELS 3 Zrotation Xrotation Yrotation
                  End Site
                  {
                    OFFSET 2.33842 -0.294052 0.168128
                  }
                }
              }
              JOINT lPinky1
              {
                OFFSET 8.27202 -0.0477905 -0.4584
                CHANNELS 3 Zrotation Xrotation Yrotation
                JOINT lPinky2
                {
                  OFFSET 1.82734 -0.647385 -0.700984
                  CHANNELS 3 Zrotation Xrotation Yrotation
                  End Site
                  {
                    OFFSET 1.69225 -0.51767 -0.607171
                  }
                }
              }
            }
          }
        }
      }
    }
  }
  JOINT rButtock
  {
    OFFSET -8.77824 4.35084 1.2192
    CHANNELS 3 Zrotation Xrotation Yrotation
    JOINT rThigh
    {
      OFFSET 0 -1.70687 -2.19456
      CHANNELS 3 Zrotation Xrotation Yrotation
      JOINT rShin
      {
        OFFSET 0 -36.8199 0.73152
        CHANNELS 3 Zrotation Xrotation Yrotation
        JOINT rFoot
        {
          OFFSET 0.73152 -45.1104 -5.12064
          CHANNELS 3 Zrotation Xrotation Yrotation
          End Site
          {
            OFFSET -1.1221 -3.69964 12.103
          }
        }
      }
    }
  }
  JOINT lButtock
  {
    OFFSET 8.77824 4.35084 1.2192
    CHANNELS 3 Zrotation Xrotation Yrotation
    JOINT lThigh
    {
      OFFSET 0 -1.70687 -2.19456
      CHANNELS 3 Zrotation Xrotation Yrotation
      JOINT lShin
      {
        OFFSET 0 -36.8199 0.73152
        CHANNELS 3 Zrotation Xrotation Yrotation
        JOINT lFoot
        {
          OFFSET -0.73152 -45.1104 -5.12064
          CHANNELS 3 Zrotation Xrotation Yrotation
          End Site
          {
            OFFSET 1.1221 -3.69964 12.103
          }
        }
      }
    }
  }
}
MOTION
Frames:	5
Frame Time:	0.00833333
-0.0034 56.117603 0.00701 9.5938 17.4911 6.9237 -18.9853 8.92098 -4.84051 7.02356 -7.75464 -1.25944 -9.10965 20.0092 -13.807 14.379101 -25.9873 -24.3184 -0.0 0.0 0.0 -0.0 0.0 0.0 -0.0 0.0 -0.0 59.533 34.3591 0.601062 -18.2731 -10.9833 34.6356 -0.13016 10.2333 1.45383 0.0 -0.0 0.0 0.0 -0.0 0.0 0.0 -0.0 0.0 7.73091 5.47488 0.417314 0.0 -0.0 0.0 2.90554 0.965183 0.102902 0.0 -0.0 0.0 10.2786 0.731801 0.025912 0.0 -0.0 0.0 2.22167 -0.733487 -0.20892 -0.0 0.0 -0.0 -69.1072 34.3748 -10.6194 14.8591 -7.66882 -27.2992 0.363623 16.9002 -2.44728 0.0 0.0 0.0 0.0 0.0 0.0 0.0 0.0 0.0 -7.73091 5.47488 -0.417314 0.0 0.0 0.0 -2.90554 0.965183 -0.102902 0.0 0.0 0.0 -10.2786 0.731801 -0.025912 0.0 0.0 0.0 -2.22167 -0.733487 0.20892 -0.0 0.0 -0.0 -63.531403 -58.295803 -53.8487 -2.55059 73.051 3.11986 1.59542 -3.95183 11.2625 0.0 0.0 0.0 6.47583 13.981 3.34774 -0.183718 29.586601 -2.42076 13.5602 -21.7154 34.5362
-0.006999 56.1082 0.014997 9.5645 17.4575 6.9235 -19.0105 8.89941 -5.0542 7.05946 -7.74011 -1.31723 -9.1609 20.3345 -14.1065 14.606901 -26.1552 -24.8742 -0.0 0.0 0.0 -0.0 0.0 0.0 -0.0 0.0 -0.0 59.6402 34.6884 0.641526 -18.2625 -10.9718 34.6118 -0.126839 10.1032 1.43496 0.0 -0.0 0.0 0.0 -0.0 0.0 0.0 -0.0 0.0 7.73091 5.47488 0.417314 0.0 -0.0 0.0 2.90554 0.965183 0.102902 0.0 -0.0 0.0 10.2786 0.731801 0.025912 0.0 -0.0 0.0 2.22167 -0.733487 -0.20892 -0.0 0.0 -0.0 -69.271 34.2204 -10.3521 14.855501 -7.6658 -27.292 0.365376 16.9394 -2.4533 0.0 0.0 0.0 0.0 0.0 0.0 0.0 0.0 0.0 -7.73091 5.47488 -0.417314 0.0 0.0 0.0 -2.90554 0.965183 -0.102902 0.0 0.0 0.0 -10.2786 0.731801 -0.025912 0.0 0.0 0.0 -2.22167 -0.733487 0.20892 -0.0 0.0 -0.0 -63.531506 -58.3271 -53.8422 -2.55828 73.0862 3.12668 1.60379 -3.98421 11.272 0.0 0.0 0.0 6.46336 14.0177 3.36367 -0.185625 29.603601 -2.42352 13.5925 -21.7416 34.5668
-0.0149 56.0992 0.026011 9.5051 17.4174 6.9123 -19.0325 8.8897 -5.28248 7.11276 -7.72772 -1.37826 -9.21362 20.6436 -14.3953 14.8315 -26.3217 -25.4079 -0.0 0.0 0.0 -0.0 0.0 0.0 -0.0 0.0 -0.0 59.709003 35.0223 0.721632 -18.2529 -10.9612 34.59 -0.123712 9.97901 1.41696 0.0 -0.0 0.0 0.0 -0.0 0.0 0.0 -0.0 0.0 7.73091 5.47488 0.417314 0.0 -0.0 0.0 2.90554 0.965183 0.102902 0.0 -0.0 0.0 10.2786 0.731801 0.025912 0.0 -0.0 0.0 2.22167 -0.733487 -0.20892 -0.0 0.0 -0.0 -69.4305 34.0426 -10.1227 14.838501 -7.65125 -27.2568 0.366456 16.9635 -2.457 0.0 0.0 0.0 0.0 0.0 0.0 0.0 0.0 0.0 -7.73091 5.47488 -0.417314 0.0 0.0 0.0 -2.90554 0.965183 -0.102902 0.0 0.0 0.0 -10.2786 0.731801 -0.025912 0.0 0.0 0.0 -2.22167 -0.733487 0.20892 -0.0 0.0 -0.0 -63.5311 -58.361897 -53.8372 -2.56399 73.1128 3.13192 1.60936 -4.00891 11.2806 0.0 0.0 0.0 6.44823 14.0475 3.38056 -0.186874 29.61 -2.42556 13.6183 -21.7583 34.5967
-0.0127 56.093 0.031996 9.5247 17.3552 6.9321 -19.0497 8.89578 -5.52841 7.1898 -7.71677 -1.44312 -9.26688 20.9364 -14.665 15.0505 -26.5067 -25.9023 -0.0 0.0 0.0 -0.0 0.0 0.0 -0.0 0.0 -0.0 59.7212 35.3611 0.859783 -18.2446 -10.9522 34.5713 -0.120783 9.86166 1.39996 0.0 -0.0 0.0 0.0 -0.0 0.0 0.0 -0.0 0.0 7.73091 5.47488 0.417314 0.0 -0.0 0.0 2.90554 0.965183 0.102902 0.0 -0.0 0.0 10.2786 0.731801 0.025912 0.0 -0.0 0.0 2.22167 -0.733487 -0.20892 -0.0 0.0 -0.0 -69.5776 33.8377 -9.95652 14.8013 -7.61962 -27.1805 0.366318 16.9603 -2.45652 0.0 0.0 0.0 0.0 0.0 0.0 0.0 0.0 0.0 -7.73091 5.47488 -0.417314 0.0 0.0 0.0 -2.90554 0.965183 -0.102902 0.0 0.0 0.0 -10.2786 0.731801 -0.025912 0.0 0.0 0.0 -2.22167 -0.733487 0.20892 -0.0 0.0 -0.0 -63.534702 -58.402805 -53.8376 -2.56686 73.1273 3.13485 1.61085 -4.02327 11.2871 0.0 0.0 0.0 6.42882 14.0636 3.39805 -0.187104 29.6041 -2.42665 13.6363 -21.7634 34.6257
-0.025699 56.0821 0.040007 9.4457 17.2956 6.9572 -19.0632 8.91052 -5.79088 7.28292 -7.70712 -1.51176 -9.3163 21.2347 -14.9294 15.263599 -26.7106 -26.3854 -0.0 0.0 0.0 -0.0 0.0 0.0 -0.0 0.0 0.0 59.6962 35.7112 1.03643 -18.2374 -10.9442 34.555 -0.117918 9.74559 1.38315 0.0 -0.0 0.0 0.0 -0.0 0.0 0.0 -0.0 0.0 7.73091 5.47488 0.417314 0.0 -0.0 0.0 2.90554 0.965183 0.102902 0.0 -0.0 0.0 10.2786 0.731801 0.025912 0.0 -0.0 0.0 2.22167 -0.733487 -0.20892 -0.0 0.0 0.0 -69.7216 33.6111 -9.82238 14.7493 -7.57536 -27.0739 0.365254 16.9366 -2.45287 0.0 0.0 0.0 0.0 0.0 0.0 0.0 0.0 0.0 -7.73091 5.47488 -0.417314 0.0 0.0 0.0 -2.90554 0.965183 -0.102902 0.0 0.0 0.0 -10.2786 0.731801 -0.025912 0.0 0.0 0.0 -2.22167 -0.733487 0.20892 -0.0 0.0 -0.0 -63.536297 -58.447105 -53.8381 -2.56771 73.1331 3.13611 1.60962 -4.03028 11.2932 0.0 0.0 0.0 6.40782 14.0732 3.41583 -0.186811 29.590101 -2.42712 13.6506 -21.7637 34.6535
